<svg viewBox="0 0 320 240" xmlns="http://www.w3.org/2000/svg" width="320" height="240">
  <rect width="320" height="240" fill="#FAF7F2"/>
  <line x1="160" y1="190" x2="160" y2="140" stroke="#2C1810" stroke-width="2" stroke-linecap="round" opacity="0.6"/>
  <path d="M160 168 Q145 158 138 148 Q152 152 160 168Z" fill="#C8553D" opacity="0.35"/>
  <path d="M160 160 Q175 150 182 140 Q168 146 160 160Z" fill="#C8553D" opacity="0.3"/>
  <ellipse cx="160" cy="120" rx="12" ry="22" fill="#FF4716" opacity="0.8" stroke="#2C1810" stroke-width="1.2"/>
  <ellipse cx="150" cy="126" rx="10" ry="18" fill="#FFB098" opacity="0.7" stroke="#2C1810" stroke-width="1" transform="rotate(-15 150 126)"/>
  <ellipse cx="170" cy="126" rx="10" ry="18" fill="#FFB098" opacity="0.7" stroke="#2C1810" stroke-width="1" transform="rotate(15 170 126)"/>
  <ellipse cx="160" cy="103" rx="7" ry="5" fill="#C8553D" opacity="0.9" stroke="#2C1810" stroke-width="1"/>
  <circle cx="215" cy="105" r="22" fill="none" stroke="#2C1810" stroke-width="2" stroke-linecap="round" opacity="0.55"/>
  <line x1="231" y1="121" x2="244" y2="134" stroke="#2C1810" stroke-width="2.5" stroke-linecap="round" opacity="0.55"/>
  <line x1="100" y1="195" x2="220" y2="195" stroke="#2C1810" stroke-width="1.2" stroke-linecap="round" opacity="0.2"/>
  <circle cx="130" cy="198" r="2.5" fill="#C8553D" opacity="0.2"/>
  <circle cx="185" cy="197" r="3" fill="#C8553D" opacity="0.2"/>
</svg>
