<svg viewBox="0 0 200 200" xmlns="http://www.w3.org/2000/svg" width="200" height="200">
  <rect width="200" height="200" fill="#FAF7F2"/>
  <g transform="translate(100,100)">
    <ellipse cx="0" cy="-32" rx="14" ry="24" fill="#FF4716" opacity="0.92" stroke="#2C1810" stroke-width="1.2"/>
    <ellipse cx="0" cy="-32" rx="14" ry="24" fill="#FF4716" opacity="0.88" stroke="#2C1810" stroke-width="1.2" transform="rotate(45)"/>
    <ellipse cx="0" cy="-32" rx="14" ry="24" fill="#C8553D" opacity="0.85" stroke="#2C1810" stroke-width="1.2" transform="rotate(90)"/>
    <ellipse cx="0" cy="-32" rx="14" ry="24" fill="#FF4716" opacity="0.88" stroke="#2C1810" stroke-width="1.2" transform="rotate(135)"/>
    <ellipse cx="0" cy="-32" rx="14" ry="24" fill="#C8553D" opacity="0.85" stroke="#2C1810" stroke-width="1.2" transform="rotate(180)"/>
    <ellipse cx="0" cy="-32" rx="14" ry="24" fill="#FF4716" opacity="0.88" stroke="#2C1810" stroke-width="1.2" transform="rotate(225)"/>
    <ellipse cx="0" cy="-32" rx="14" ry="24" fill="#C8553D" opacity="0.9" stroke="#2C1810" stroke-width="1.2" transform="rotate(270)"/>
    <ellipse cx="0" cy="-32" rx="14" ry="24" fill="#FF4716" opacity="0.88" stroke="#2C1810" stroke-width="1.2" transform="rotate(315)"/>
    <circle cx="0" cy="0" r="12" fill="#FAF7F2" stroke="#2C1810" stroke-width="1.5"/>
    <circle cx="0" cy="0" r="5" fill="#FF4716"/>
  </g>
  <circle cx="46" cy="46" r="3" fill="#FF4716" opacity="0.7"/>
  <circle cx="155" cy="48" r="2.5" fill="#C8553D" opacity="0.65"/>
  <circle cx="42" cy="158" r="2" fill="#FF4716" opacity="0.6"/>
  <circle cx="158" cy="155" r="3" fill="#FFB098" opacity="0.7"/>
  <circle cx="30" cy="100" r="2" fill="#FF4716" opacity="0.5"/>
  <circle cx="170" cy="100" r="2.5" fill="#C8553D" opacity="0.55"/>
  <circle cx="100" cy="30" r="2" fill="#FF4716" opacity="0.6"/>
  <circle cx="100" cy="170" r="2.5" fill="#FFB098" opacity="0.6"/>
</svg>
