<svg viewBox="0 0 480 320" xmlns="http://www.w3.org/2000/svg" width="480" height="320">
  <rect width="480" height="320" fill="#FAF7F2"/>
  <!-- growth arrow curve -->
  <path d="M80 260 Q180 240 280 200 Q360 165 420 120" fill="none" stroke="#FFB098" stroke-width="2" stroke-linecap="round" stroke-dasharray="6 4" opacity="0.6"/>
  <polygon points="420,120 408,132 426,134" fill="#FF4716" opacity="0.5"/>
  <!-- small flower (free tier) at left -->
  <g transform="translate(100,240)">
    <ellipse cx="0" cy="-20" rx="9" ry="15" fill="#FFB098" opacity="0.75" stroke="#2C1810" stroke-width="1" transform="rotate(0)"/>
    <ellipse cx="0" cy="-20" rx="9" ry="15" fill="#FFB098" opacity="0.7" stroke="#2C1810" stroke-width="1" transform="rotate(45)"/>
    <ellipse cx="0" cy="-20" rx="9" ry="15" fill="#FFB098" opacity="0.75" stroke="#2C1810" stroke-width="1" transform="rotate(90)"/>
    <ellipse cx="0" cy="-20" rx="9" ry="15" fill="#FFB098" opacity="0.7" stroke="#2C1810" stroke-width="1" transform="rotate(135)"/>
    <ellipse cx="0" cy="-20" rx="9" ry="15" fill="#FFB098" opacity="0.75" stroke="#2C1810" stroke-width="1" transform="rotate(180)"/>
    <ellipse cx="0" cy="-20" rx="9" ry="15" fill="#FFB098" opacity="0.7" stroke="#2C1810" stroke-width="1" transform="rotate(225)"/>
    <ellipse cx="0" cy="-20" rx="9" ry="15" fill="#FFB098" opacity="0.75" stroke="#2C1810" stroke-width="1" transform="rotate(270)"/>
    <ellipse cx="0" cy="-20" rx="9" ry="15" fill="#FFB098" opacity="0.7" stroke="#2C1810" stroke-width="1" transform="rotate(315)"/>
    <circle cx="0" cy="0" r="7" fill="#FAF7F2" stroke="#2C1810" stroke-width="1.2"/>
    <circle cx="0" cy="0" r="3" fill="#FFB098"/>
  </g>
  <!-- medium flower (starter tier) at center -->
  <g transform="translate(255,195)">
    <ellipse cx="0" cy="-28" rx="12" ry="21" fill="#C8553D" opacity="0.82" stroke="#2C1810" stroke-width="1.2" transform="rotate(0)"/>
    <ellipse cx="0" cy="-28" rx="12" ry="21" fill="#C8553D" opacity="0.78" stroke="#2C1810" stroke-width="1.2" transform="rotate(45)"/>
    <ellipse cx="0" cy="-28" rx="12" ry="21" fill="#C8553D" opacity="0.82" stroke="#2C1810" stroke-width="1.2" transform="rotate(90)"/>
    <ellipse cx="0" cy="-28" rx="12" ry="21" fill="#C8553D" opacity="0.78" stroke="#2C1810" stroke-width="1.2" transform="rotate(135)"/>
    <ellipse cx="0" cy="-28" rx="12" ry="21" fill="#C8553D" opacity="0.82" stroke="#2C1810" stroke-width="1.2" transform="rotate(180)"/>
    <ellipse cx="0" cy="-28" rx="12" ry="21" fill="#C8553D" opacity="0.78" stroke="#2C1810" stroke-width="1.2" transform="rotate(225)"/>
    <ellipse cx="0" cy="-28" rx="12" ry="21" fill="#C8553D" opacity="0.82" stroke="#2C1810" stroke-width="1.2" transform="rotate(270)"/>
    <ellipse cx="0" cy="-28" rx="12" ry="21" fill="#C8553D" opacity="0.78" stroke="#2C1810" stroke-width="1.2" transform="rotate(315)"/>
    <circle cx="0" cy="0" r="9" fill="#FAF7F2" stroke="#2C1810" stroke-width="1.3"/>
    <circle cx="0" cy="0" r="4" fill="#C8553D"/>
  </g>
  <!-- large flower (pro tier) at right -->
  <g transform="translate(400,130)">
    <ellipse cx="0" cy="-38" rx="16" ry="28" fill="#FF4716" opacity="0.92" stroke="#2C1810" stroke-width="1.5" transform="rotate(0)"/>
    <ellipse cx="0" cy="-38" rx="16" ry="28" fill="#FF4716" opacity="0.88" stroke="#2C1810" stroke-width="1.5" transform="rotate(45)"/>
    <ellipse cx="0" cy="-38" rx="16" ry="28" fill="#C8553D" opacity="0.85" stroke="#2C1810" stroke-width="1.5" transform="rotate(90)"/>
    <ellipse cx="0" cy="-38" rx="16" ry="28" fill="#FF4716" opacity="0.88" stroke="#2C1810" stroke-width="1.5" transform="rotate(135)"/>
    <ellipse cx="0" cy="-38" rx="16" ry="28" fill="#C8553D" opacity="0.85" stroke="#2C1810" stroke-width="1.5" transform="rotate(180)"/>
    <ellipse cx="0" cy="-38" rx="16" ry="28" fill="#FF4716" opacity="0.88" stroke="#2C1810" stroke-width="1.5" transform="rotate(225)"/>
    <ellipse cx="0" cy="-38" rx="16" ry="28" fill="#C8553D" opacity="0.9" stroke="#2C1810" stroke-width="1.5" transform="rotate(270)"/>
    <ellipse cx="0" cy="-38" rx="16" ry="28" fill="#FF4716" opacity="0.88" stroke="#2C1810" stroke-width="1.5" transform="rotate(315)"/>
    <circle cx="0" cy="0" r="13" fill="#FAF7F2" stroke="#2C1810" stroke-width="1.5"/>
    <circle cx="0" cy="0" r="5" fill="#FF4716"/>
  </g>
  <!-- sparkles -->
  <circle cx="370" cy="80" r="2.5" fill="#FF4716" opacity="0.6"/>
  <circle cx="440" cy="95" r="2" fill="#FFB098" opacity="0.55"/>
  <circle cx="60" cy="210" r="2" fill="#C8553D" opacity="0.35"/>
</svg>
